<svg xmlns="http://www.w3.org/2000/svg" width="1200" height="630" viewBox="0 0 1200 630">
  <rect width="1200" height="630" fill="#0f1117"/>
  <rect x="0" y="0" width="1200" height="4" fill="#6366f1"/>
  <!-- Title -->
  <text x="600" y="220" text-anchor="middle" font-family="-apple-system, BlinkMacSystemFont, 'Segoe UI', sans-serif" font-size="72" font-weight="700" fill="#e4e4e7">幾歲能退休？</text>
  <!-- Subtitle -->
  <text x="600" y="300" text-anchor="middle" font-family="-apple-system, BlinkMacSystemFont, 'Segoe UI', sans-serif" font-size="32" fill="#9ca3af">退休金計算模擬器</text>
  <!-- Decorative chart line -->
  <polyline points="200,450 350,420 500,380 600,350 700,340 800,370 900,410 1000,460" fill="none" stroke="#6366f1" stroke-width="3" stroke-linecap="round" stroke-linejoin="round"/>
  <polyline points="200,450 350,430 500,400 600,360 700,320 800,300 900,290 1000,310" fill="none" stroke="#22c55e" stroke-width="3" stroke-linecap="round" stroke-linejoin="round" stroke-dasharray="6,4" opacity="0.6"/>
  <polyline points="200,450 350,440 500,420 600,400 700,410 800,440 900,480 1000,520" fill="none" stroke="#ef4444" stroke-width="3" stroke-linecap="round" stroke-linejoin="round" stroke-dasharray="6,4" opacity="0.6"/>
  <!-- FIRE badge -->
  <text x="600" y="560" text-anchor="middle" font-family="-apple-system, BlinkMacSystemFont, 'Segoe UI', sans-serif" font-size="22" fill="#6366f1" letter-spacing="0.15em">FIRE 財務自由規劃工具</text>
</svg>
